# xmcd
# 
# Track frame offsets:
#     150
#     16952
#     36007
#     57342
#     81625
#     103132
#     117425
#     138877
#     159659
#     183767
#     206183
#     219213
# 
# Disc length: 3159
# 
# Revision: 2
# Processed by: cddbd v1.5.2PL0 Copyright (c) Steve Scherf et al.
# Submitted via: fre:ac v1.0.27
# 
DISCID=a70c550c
DTITLE=Chris James and Patrick Rynn - Stop And Think About It
DYEAR=2008
DGENRE=Blues
TTITLE0=You're Gone
TTITLE1=Early One Morning
TTITLE2=Mister Coffee
TTITLE3=Confessin' The Blues
TTITLE4=I'd Like To Write A Letter
TTITLE5=Hawaiian Boogie
TTITLE6=Stop And Think About It
TTITLE7=Mona
TTITLE8=Got To Move
TTITLE9=Someone To Love Me
TTITLE10=Relaxin' At The Clarendon
TTITLE11=My Kind Of Woman
EXTD=
EXTT0=
EXTT1=
EXTT2=
EXTT3=
EXTT4=
EXTT5=
EXTT6=
EXTT7=
EXTT8=
EXTT9=
EXTT10=
EXTT11=
PLAYORDER=
